# xmcd
# 
# Track frame offsets:
#     150
#     48524
#     63027
#     73240
#     89948
#     102708
#     116734
#     128880
#     152173
# 
# Disc length: 2283
# 
# Revision: 0
# Processed by: cddbd v1.5.2PL0 Copyright (c) Steve Scherf et al.
# Submitted via: BonkEnc v1.0.8
# 
DISCID=8908e909
DTITLE=Steve Miller Band - Fly Like An Eagle
DYEAR=0
DGENRE=Blues
TTITLE0=Space Intro - Fly Like An Eagle - Wild Mountain Honey
TTITLE1=Serenade
TTITLE2=Dance, Dance, Dance
TTITLE3=Mercury Blues
TTITLE4=Take The Money And Run
TTITLE5=Rock 'N' Me
TTITLE6=You Send Me
TTITLE7=Blue Odysse - Sweet Mareee
TTITLE8=The Window
EXTD=
EXTT0=
EXTT1=
EXTT2=
EXTT3=
EXTT4=
EXTT5=
EXTT6=
EXTT7=
EXTT8=
PLAYORDER=
